<?xml version="1.0" encoding="UTF-8"?>
<svg width="200" height="200" aria-hidden="true" aria-labelledby="svgcid--4atbyan90oe0" data-bbox="23.5 23.5 153 153" data-type="color" role="presentation" viewBox="23.5 23.5 153 153" xmlns="http://www.w3.org/2000/svg">
<defs>
<style>#comp-kycyn6r4 svg [data-color="1"] {fill: #000000;}
#comp-kycyn6r4 svg [data-color="2"] {fill: #FFFFFF;}</style>
</defs>
<path d="m158.03 23.5h-116.05c-10.203 0-18.474 8.271-18.474 18.474v116.05c0 10.203 8.271 18.474 18.474 18.474h116.05c10.203 0 18.474-8.271 18.474-18.474v-116.05c0-10.203-8.271-18.474-18.474-18.474z" fill="#111010" data-color="1"/>
<path d="m124.32 67.931h-48.65a7.744 7.744 0 0 0-7.744 7.744v48.65a7.744 7.744 0 0 0 7.744 7.744h48.65a7.744 7.744 0 0 0 7.744-7.744v-48.65a7.744 7.744 0 0 0-7.744-7.744z" fill="#fff" data-color="2"/>
<path d="M52.596 38.691 35.604 55.684c-1.422 1.422-.415 3.854 1.597 3.854h16.992a2.258 2.258 0 0 0 2.258-2.258V40.288c-.001-2.012-2.433-3.019-3.855-1.597z" fill="#fff" data-color="2"/>
<path d="m147.404 38.691 16.992 16.992c1.422 1.422.415 3.854-1.597 3.854h-16.992a2.258 2.258 0 0 1-2.258-2.258V40.288c.001-2.012 2.433-3.019 3.855-1.597z" fill="#fff" data-color="2"/>
<path d="m52.596 161.31-16.992-16.992c-1.422-1.422-0.415-3.854 1.597-3.854h16.992a2.258 2.258 0 0 1 2.258 2.258v16.992c-1e-3 2.011-2.433 3.018-3.855 1.596z" fill="#fff" data-color="2"/>
<path d="m147.4 161.31 16.992-16.992c1.422-1.422 0.415-3.854-1.597-3.854h-16.992a2.258 2.258 0 0 0-2.258 2.258v16.992c1e-3 2.011 2.433 3.018 3.855 1.596z" fill="#fff" data-color="2"/>
</svg>
