<?xml version="1.0" encoding="UTF-8"?>
<svg width="200" height="200" aria-hidden="true" data-bbox="23.5 23.5 153 153" data-type="color" role="presentation" viewBox="23.5 23.5 153 153" xmlns="http://www.w3.org/2000/svg">
<defs>
<style>#comp-kyvcoflc svg [data-color="1"] {fill: #000000;}
#comp-kyvcoflc svg [data-color="2"] {fill: #FFFFFF;}</style>
</defs>
<path d="m158.03 23.5h-116.05c-10.203 0-18.474 8.271-18.474 18.474v116.05c0 10.203 8.271 18.474 18.474 18.474h116.05c10.203 0 18.474-8.271 18.474-18.474v-116.05c0-10.203-8.271-18.474-18.474-18.474z" fill="#111010" data-color="1"/>
<path d="m103.841 76.805-57.106 71.716c-2.334 3.134 1.611 7.078 4.744 4.744l71.716-57.106c2.688-2.002 2.974-5.924.603-8.294l-11.664-11.664a5.496 5.496 0 0 0-8.293.604z" fill="#fff" data-color="2"/>
<path d="m144.12 76.927c5.811-5.811 9.855-30.897 9.855-30.897s-25.087 4.045-30.897 9.855c-5.811 5.811-5.811 15.232 0 21.042 5.81 5.81 15.231 5.81 21.042 0z" fill="#fff" data-color="2"/>
</svg>
