<?xml version="1.0" encoding="UTF-8"?>
<svg width="200" height="200" aria-hidden="true" aria-labelledby="svgcid-jh3d5t1ypd4g" data-bbox="23.5 23.5 153 153" data-type="color" role="presentation" viewBox="23.5 23.5 153 153" xmlns="http://www.w3.org/2000/svg">
<defs>
<style>#comp-kyvcofjn svg [data-color="1"] {fill: #000000;}
#comp-kyvcofjn svg [data-color="2"] {fill: #FFFFFF;}</style>
</defs>
<path d="m158.03 23.5h-116.05c-10.203 0-18.474 8.271-18.474 18.474v116.05c0 10.203 8.271 18.474 18.474 18.474h116.05c10.203 0 18.474-8.271 18.474-18.474v-116.05c0-10.203-8.271-18.474-18.474-18.474z" fill="#111010" data-color="1"/>
<path d="M152.833 75.899H57.698c-5.816 0-10.53 5.445-10.53 12.161v46.514c0 6.717 4.715 12.162 10.531 12.162h84.604c5.816 0 10.531-5.445 10.531-12.162V75.899z" fill="#fff" data-color="2"/>
<path d="m145.53 55.918h-23.132c-4.031 0-7.299 3.774-7.299 8.43v5.215h37.73v-5.215c1e-3 -4.655-3.267-8.43-7.299-8.43z" fill="#fff" data-color="2"/>
</svg>
