<?xml version="1.0" encoding="UTF-8"?>
<svg width="200" height="200" aria-hidden="true" data-bbox="23.5 23.5 153 153" data-type="color" role="presentation" viewBox="23.5 23.5 153 153" xmlns="http://www.w3.org/2000/svg">
<defs>
<style>#comp-kyvcofhk svg [data-color="1"] {fill: #000000;}
#comp-kyvcofhk svg [data-color="2"] {fill: #FFFFFF;}</style>
</defs>
<path d="m158.03 23.5h-116.05c-10.203 0-18.474 8.271-18.474 18.474v116.05c0 10.203 8.271 18.474 18.474 18.474h116.05c10.203 0 18.474-8.271 18.474-18.474v-116.05c0-10.203-8.271-18.474-18.474-18.474z" fill="#111010" data-color="1"/>
<path d="M111.97 40.877H88.03a3.81 3.81 0 0 0-3.811 3.811v23.94a3.81 3.81 0 0 0 3.811 3.811h23.94a3.81 3.81 0 0 0 3.811-3.811v-23.94a3.81 3.81 0 0 0-3.811-3.811z" fill="#fff" data-color="2"/>
<path d="M111.97 84.219H88.03a3.81 3.81 0 0 0-3.811 3.811v23.94a3.81 3.81 0 0 0 3.811 3.811h23.94a3.81 3.81 0 0 0 3.811-3.811V88.03a3.81 3.81 0 0 0-3.811-3.811z" fill="#fff" data-color="2"/>
<path d="m111.97 127.56h-23.94a3.81 3.81 0 0 0-3.811 3.811v23.94a3.81 3.81 0 0 0 3.811 3.811h23.94a3.81 3.81 0 0 0 3.811-3.811v-23.94a3.81 3.81 0 0 0-3.811-3.811z" fill="#fff" data-color="2"/>
<path d="m159.12 111.97v-23.94a3.81 3.81 0 0 0-3.811-3.811h-23.94a3.81 3.81 0 0 0-3.811 3.811v23.94a3.81 3.81 0 0 0 3.811 3.811h23.94a3.81 3.81 0 0 0 3.811-3.811z" fill="#fff" data-color="2"/>
<path d="M72.439 111.97V88.03a3.81 3.81 0 0 0-3.811-3.811h-23.94a3.81 3.81 0 0 0-3.811 3.811v23.94a3.81 3.81 0 0 0 3.811 3.811h23.94a3.81 3.81 0 0 0 3.811-3.811z" fill="#fff" data-color="2"/>
</svg>
