<?xml version="1.0" encoding="UTF-8"?>
<svg width="200" height="200" aria-hidden="true" aria-labelledby="svgcid--giyr0v5q7x5b" data-bbox="23.5 23.5 153 153" data-type="color" role="presentation" viewBox="23.5 23.5 153 153" xmlns="http://www.w3.org/2000/svg">
<defs>
<style>#comp-kycyn6r2 svg [data-color="1"] {fill: #000000;}
#comp-kycyn6r2 svg [data-color="2"] {fill: #FFFFFF;}</style>
</defs>
<path d="m158.03 23.5h-116.05c-10.203 0-18.474 8.271-18.474 18.474v116.05c0 10.203 8.271 18.474 18.474 18.474h116.05c10.203 0 18.474-8.271 18.474-18.474v-116.05c0-10.203-8.271-18.474-18.474-18.474z" fill="#111010" data-color="1"/>
<path d="m133.22 75.772h-6.588c0-14.683-11.945-26.629-26.629-26.629s-26.63 11.946-26.63 26.629h-6.588c0-18.316 14.901-33.217 33.217-33.217 18.317 0 33.218 14.901 33.218 33.217z" fill="#fff" data-color="2"/>
<path d="M130.662 82.431H69.338c-5.391 0-9.762 3.947-9.762 8.816v55.381c0 4.869 4.371 8.816 9.762 8.816h61.324c5.391 0 9.762-3.947 9.762-8.816V91.247c0-4.868-4.371-8.816-9.762-8.816zm-11.973 35.105-22.531 22.335a.907.907 0 0 1-.638.262h-7.143c-.806 0-1.21-.975-.64-1.545l14.823-14.824c.57-.57.167-1.545-.64-1.545H81.934c-.807 0-1.21-.975-.64-1.545l22.812-22.813c-.149-.149 4.855-.124 7.834-.095.802.008 1.196.978.629 1.545l-15.131 15.131c-.57.57-.167 1.545.64 1.545h19.973c.81 0 1.212.979.638 1.549z" fill="#fff" data-color="2"/>
</svg>
