<?xml version="1.0" encoding="UTF-8"?>
<svg width="200" height="200" aria-hidden="true" aria-labelledby="svgcid--yyjqvxqxkgcn" data-bbox="23.5 23.5 153 153" data-type="color" role="presentation" viewBox="23.5 23.5 153 153" xmlns="http://www.w3.org/2000/svg">
<defs>
<style>#comp-kycyn6qt svg [data-color="1"] {fill: #000000;}
#comp-kycyn6qt svg [data-color="2"] {fill: #FFFFFF;}</style>
</defs>
<path d="m158.03 23.5h-116.05c-10.203 0-18.474 8.271-18.474 18.474v116.05c0 10.203 8.271 18.474 18.474 18.474h116.05c10.203 0 18.474-8.271 18.474-18.474v-116.05c0-10.203-8.271-18.474-18.474-18.474z" fill="#111010" data-color="1"/>
<path d="M108.942 120.435v17.407c0 5.796-4.716 10.512-10.512 10.512H62.157c-5.796 0-10.512-4.715-10.512-10.512V101.57c0-5.796 4.716-10.512 10.512-10.512H98.43c5.796 0 10.512 4.715 10.512 10.512v2.151h7v-2.151c0-9.656-7.855-17.512-17.512-17.512H62.157c-9.656 0-17.512 7.856-17.512 17.512v36.272c0 9.656 7.855 17.512 17.512 17.512H98.43c9.656 0 17.512-7.856 17.512-17.512v-17.407h-7z" fill="#fff" data-color="2"/>
<path d="M137.843 44.646H101.57c-9.656 0-17.512 7.855-17.512 17.511v17.045h7V62.157c0-5.796 4.716-10.511 10.512-10.511h36.272c5.796 0 10.512 4.715 10.512 10.511V98.43c0 5.796-4.716 10.512-10.512 10.512H101.57c-5.796 0-10.512-4.715-10.512-10.512v-2.514h-7v2.514c0 9.656 7.855 17.512 17.512 17.512h36.272c9.656 0 17.512-7.856 17.512-17.512V62.157c0-9.656-7.855-17.511-17.511-17.511z" fill="#fff" data-color="2"/>
</svg>
